<svg width="159" height="39" viewBox="0 0 159 39" fill="none" xmlns="http://www.w3.org/2000/svg">
<rect width="156" height="33" fill="black" fill-opacity="0" transform="translate(3 3)"/>
<path d="M68.3739 32.5398C68.9262 32.5398 69.3739 32.0921 69.3739 31.5398V8C69.3739 7.44772 68.9262 7 68.3739 7H64.0625C63.5102 7 63.0625 7.44772 63.0625 8V17.0177H53.147V8C53.147 7.44772 52.6993 7 52.147 7H47.8184C47.2661 7 46.8184 7.44772 46.8184 8V31.5398C46.8184 32.0921 47.2661 32.5398 47.8184 32.5398H52.147C52.6993 32.5398 53.147 32.0921 53.147 31.5398V22.2389H63.0625V31.5398C63.0625 32.0921 63.5102 32.5398 64.0625 32.5398H68.3739Z" fill="#A1A1A1"/>
<path d="M100.7 32.5398C101.252 32.5398 101.7 32.0921 101.7 31.5398V8C101.7 7.44772 101.252 7 100.7 7H94.9196C94.5061 7 94.1352 7.25448 93.9865 7.64028L88.2151 22.6106H87.8875L82.0992 7.63939C81.9502 7.25405 81.5796 7 81.1664 7H75.3852C74.8329 7 74.3852 7.44772 74.3852 8V31.5398C74.3852 32.0921 74.8329 32.5398 75.3852 32.5398H79.231C79.7833 32.5398 80.231 32.0921 80.231 31.5398V16.4159H80.5414L85.5961 29.3054C85.8965 30.0714 86.6353 30.5752 87.458 30.5752H88.643C89.4665 30.5752 90.2058 30.0704 90.5057 29.3034L95.5439 16.4159H95.8543V31.5398C95.8543 32.0921 96.302 32.5398 96.8543 32.5398H100.7Z" fill="#A1A1A1"/>
<path d="M33.226 28.795C32.2404 27.8281 30.6576 27.8432 29.6906 28.8288C28.7237 29.8144 28.7388 31.3972 29.7243 32.3641L33.226 28.795ZM35.2492 37.7846C36.2348 38.7515 37.8176 38.7364 38.7846 37.7508C39.7515 36.7652 39.7364 35.1824 38.7508 34.2154L35.2492 37.7846ZM19.5745 33.0224C11.7562 33.0224 5.5 26.8166 5.5 19.2612H0.5C0.5 29.6675 9.08514 38.0224 19.5745 38.0224V33.0224ZM33.649 19.2612C33.649 26.8166 27.3928 33.0224 19.5745 33.0224V38.0224C30.0639 38.0224 38.649 29.6675 38.649 19.2612H33.649ZM19.5745 5.5C27.3928 5.5 33.649 11.7059 33.649 19.2612H38.649C38.649 8.85492 30.0639 0.5 19.5745 0.5V5.5ZM19.5745 0.5C9.08514 0.5 0.5 8.85492 0.5 19.2612H5.5C5.5 11.7059 11.7562 5.5 19.5745 5.5V0.5ZM29.7243 32.3641L35.2492 37.7846L38.7508 34.2154L33.226 28.795L29.7243 32.3641Z" fill="#FFCD4C"/>
<path d="M123.611 28.177C123.611 27.6247 123.164 27.177 122.611 27.177H113.041V8C113.041 7.44771 112.593 7 112.041 7H107.712C107.16 7 106.712 7.44772 106.712 8V31.5398C106.712 32.0921 107.16 32.5398 107.712 32.5398H122.611C123.164 32.5398 123.611 32.0921 123.611 31.5398V28.177Z" fill="#FF2D55"/>
<path d="M134.796 33C140.952 33 144.574 29.177 144.574 22.6814C144.574 16.2743 140.866 12.3805 134.796 12.3805C128.761 12.3805 125.019 16.3097 125.019 22.6814C125.019 29.1593 128.657 33 134.796 33ZM134.796 28.2212C132.554 28.2212 131.278 26.2035 131.278 22.6814C131.278 19.2478 132.589 17.1593 134.796 17.1593C137.003 17.1593 138.314 19.2478 138.314 22.6814C138.314 26.1858 137.038 28.2212 134.796 28.2212Z" fill="#FF2D55"/>
<path d="M150.05 8.32743C149.498 8.32743 149.05 8.77515 149.05 9.32743V13.1062H147.102C146.549 13.1062 146.102 13.5539 146.102 14.1062V16.7611C146.102 17.3133 146.549 17.7611 147.102 17.7611H149.05V27.1416C149.05 31 151.033 32.5752 156.086 32.5752C156.852 32.5752 157.604 32.5285 158.209 32.4557C158.674 32.3997 159 31.9938 159 31.525V28.9927C159 28.3938 158.477 27.9364 157.879 27.9511C157.753 27.9541 157.617 27.9558 157.466 27.9558C155.879 27.9558 155.138 27.2301 155.138 25.7434V17.7611H158C158.553 17.7611 159 17.3133 159 16.7611V14.1062C159 13.5539 158.553 13.1062 158 13.1062H155.138V9.32743C155.138 8.77515 154.69 8.32743 154.138 8.32743H150.05Z" fill="#FF2D55"/>
</svg>
