<svg width="36" height="36" viewBox="0 0 36 36" fill="none" xmlns="http://www.w3.org/2000/svg">
<rect width="36" height="36" fill="black" fill-opacity="0"/>
<circle cx="18" cy="18" r="18" fill="#7A83A1"/>
<rect width="31.5" height="31.5" fill="black" fill-opacity="0" transform="translate(2.25 2.25)"/>
<path d="M18 2.25C9.306 2.25 2.25 9.306 2.25 18C2.25 26.694 9.306 33.75 18 33.75C26.694 33.75 33.75 26.694 33.75 18C33.75 9.306 26.694 2.25 18 2.25ZM18 6.975C20.6145 6.975 22.725 9.0855 22.725 11.7C22.725 14.3145 20.6145 16.425 18 16.425C15.3855 16.425 13.275 14.3145 13.275 11.7C13.275 9.0855 15.3855 6.975 18 6.975ZM18 29.34C14.0625 29.34 10.5817 27.324 8.55 24.2685C8.59725 21.1342 14.85 19.4175 18 19.4175C21.1343 19.4175 27.4028 21.1342 27.45 24.2685C25.4182 27.324 21.9375 29.34 18 29.34Z" fill="white"/>
</svg>
