<svg width="22" height="22" viewBox="0 0 22 22" fill="none" xmlns="http://www.w3.org/2000/svg">
<rect width="22" height="22" fill="black" fill-opacity="0"/>
<rect width="22" height="22" rx="11" fill="#3396FF"/>
<path d="M6.58398 8.2959H8.76416C8.83838 7.16406 9.6084 6.44043 10.8052 6.44043C11.9741 6.44043 12.7534 7.13623 12.7534 8.10107C12.7534 9.01953 12.3638 9.51123 11.2134 10.207C9.93311 10.9585 9.39502 11.7935 9.47852 13.1851L9.48779 13.8159H11.6401V13.2871C11.6401 12.3687 11.9834 11.8955 13.1987 11.1812C14.4604 10.4297 15.1655 9.43701 15.1655 8.01758C15.1655 5.96729 13.4678 4.50146 10.9258 4.50146C8.17041 4.50146 6.6582 6.09717 6.58398 8.2959ZM10.666 18.2412C11.6123 18.2412 12.2061 17.6567 12.2061 16.7661C12.2061 15.8662 11.6123 15.2817 10.666 15.2817C9.73828 15.2817 9.12598 15.8662 9.12598 16.7661C9.12598 17.6567 9.73828 18.2412 10.666 18.2412Z" fill="white"/>
</svg>
