<svg width="23" height="21" viewBox="0 0 23 21" fill="none" xmlns="http://www.w3.org/2000/svg">
<path fill-rule="evenodd" clip-rule="evenodd" d="M14.4717 -0.000488281H8.52881C8.12354 -0.000488281 7.58643 0.32373 7.33496 0.720215L5.00928 4.10986H1.48291C0.663574 4.10986 0 4.92529 0 5.93311V19.1763C0 20.1851 0.663574 20.9995 1.48291 20.9995H21.5181C22.3374 20.9995 23 20.1831 23 19.1763V5.93311C23 4.92334 22.3374 4.10986 21.5181 4.10986H18.0059L15.665 0.720215C15.4141 0.322754 14.8794 -0.000488281 14.4717 -0.000488281ZM5.30762 11.856C5.30762 15.2388 8.08008 17.981 11.5005 17.981C14.9209 17.981 17.6924 15.2388 17.6924 11.856C17.6924 8.47217 14.9209 5.73096 11.5005 5.73096C8.08008 5.73096 5.30762 8.47217 5.30762 11.856ZM11.501 7.48193C9.05811 7.48193 7.07812 9.43994 7.07812 11.8569C7.07812 14.2739 9.05811 16.2319 11.501 16.2319C13.9443 16.2319 15.9243 14.2739 15.9243 11.8569C15.9243 9.43994 13.9443 7.48193 11.501 7.48193Z" fill="#3396FF"/>
</svg>
