<svg width="16" height="16" viewBox="0 0 16 16" fill="none" xmlns="http://www.w3.org/2000/svg">
<g opacity="0.5">
<rect width="16" height="16" fill="black" fill-opacity="0"/>
<path fill-rule="evenodd" clip-rule="evenodd" d="M11.2667 6.36804C11.5828 6.05197 11.5811 5.54712 11.2687 5.2347C10.9541 4.9201 10.4488 4.92316 10.1353 5.23667L8.25168 7.12031L6.36804 5.23667C6.05197 4.9206 5.54712 4.92228 5.2347 5.2347C4.9201 5.54929 4.92316 6.05453 5.23667 6.36804L7.12031 8.25168L5.23667 10.1353C4.9206 10.4514 4.92228 10.9563 5.2347 11.2687C5.54929 11.5833 6.05453 11.5802 6.36804 11.2667L8.25168 9.38306L10.1353 11.2667C10.4514 11.5828 10.9563 11.5811 11.2687 11.2687C11.5833 10.9541 11.5802 10.4488 11.2667 10.1353L9.38306 8.25168L11.2667 6.36804Z" fill="#7A83A1"/>
</g>
</svg>
