<svg width="12" height="15" viewBox="0 0 12 15" fill="none" xmlns="http://www.w3.org/2000/svg">
<path d="M0.877888 8.47938e-08C0.633609 8.47938e-08 0.426048 0.0900809 0.255653 0.270464C0.0852574 0.450784 4.37286e-08 0.667098 4.37286e-08 0.91947V4.79589C4.37286e-08 5.05413 0.0852276 5.27348 0.255653 5.4538C0.426048 5.63415 0.63349 5.72414 0.877799 5.72414C1.12217 5.72414 1.32812 5.63412 1.49571 5.4538C1.66341 5.27348 1.74721 5.05413 1.74721 4.79589V0.91947C1.74721 0.667003 1.66192 0.450689 1.49153 0.270464C1.3211 0.0901756 1.11647 8.47938e-08 0.877888 8.47938e-08Z" transform="translate(0 4.85895)" fill="#7A83A1"/>
<path d="M9.83893e-08 6.00379C9.83893e-08 6.28019 0.0909292 6.51456 0.272728 6.70691C0.454557 6.89904 0.676089 6.99518 0.937533 6.99518H1.56825L1.57684 9.0415C1.57684 9.29997 1.66207 9.51919 1.8325 9.69954C2.00289 9.87986 2.2075 9.96997 2.44611 9.96997C2.69053 9.96997 2.89786 9.87986 3.06834 9.69954C3.23883 9.51919 3.32399 9.29997 3.32399 9.0415V6.99518H4.50007V9.0415C4.50007 9.29997 4.58527 9.51919 4.75567 9.69954C4.92627 9.87986 5.13365 9.96997 5.37802 9.96997C5.62218 9.96997 5.82956 9.87986 5.99996 9.69954C6.17035 9.51919 6.25546 9.29997 6.25546 9.0415V6.99518H6.89477C7.15031 6.99518 7.36912 6.89923 7.55092 6.70691C7.73278 6.51456 7.82371 6.28019 7.82371 6.00379V-4.23969e-08H9.83893e-08V6.00379Z" transform="translate(2.08984 5.03027)" fill="#7A83A1"/>
<path d="M5.88079 1.37924L6.48574 0.198274C6.52559 0.120159 6.51127 0.0600738 6.44323 0.0180487C6.36926 -0.0180405 6.31248 -1.16908e-05 6.27284 0.0721667L5.65908 1.26204C5.11929 1.00963 4.54843 0.883432 3.94605 0.883432C3.34382 0.883432 2.77275 1.00963 2.23293 1.26204L1.61929 0.0721983C1.57965 1.98811e-05 1.52275 -0.0180089 1.4489 0.0180803C1.38069 0.0601054 1.36657 0.120191 1.40633 0.198305L2.01146 1.37924C1.39773 1.70973 0.909233 2.17099 0.545486 2.76294C0.181859 3.35493 3.64405e-09 4.00251 3.64405e-09 4.70554H7.88377C7.88377 4.00251 7.70194 3.3549 7.33829 2.76294C6.97448 2.17099 6.48894 1.70969 5.88079 1.37924ZM2.3821 3.09643C2.31682 3.16558 2.23872 3.20012 2.14779 3.20012C2.05686 3.20012 1.9802 3.16561 1.91763 3.09643C1.85521 3.02738 1.8239 2.94472 1.8239 2.84857C1.8239 2.7524 1.85521 2.66974 1.91763 2.60059C1.98012 2.53144 2.05689 2.49696 2.14779 2.49696C2.2386 2.49696 2.31673 2.53141 2.3821 2.60059C2.44748 2.66974 2.48014 2.7524 2.48014 2.84857C2.48014 2.94475 2.44748 3.02728 2.3821 3.09643ZM5.97465 3.09643C5.91202 3.16558 5.8353 3.20012 5.7444 3.20012C5.65347 3.20012 5.57552 3.16561 5.51012 3.09643C5.44474 3.02738 5.41217 2.94472 5.41217 2.84857C5.41217 2.7524 5.44474 2.66974 5.51012 2.60059C5.57549 2.53144 5.65347 2.49696 5.7444 2.49696C5.8353 2.49696 5.91202 2.53141 5.97465 2.60059C6.03698 2.66974 6.06835 2.7524 6.06835 2.84857C6.06835 2.94475 6.03707 3.02728 5.97465 3.09643Z" transform="translate(2.05396)" fill="#7A83A1"/>
<path d="M1.49141 0.265917C1.32101 0.0886601 1.11363 8.47938e-08 0.869261 8.47938e-08C0.630713 8.47938e-08 0.426167 0.0886601 0.255772 0.265917C0.085287 0.443238 -6.55928e-08 0.661131 -6.55928e-08 0.91947V4.79589C-6.55928e-08 5.05413 0.085287 5.27348 0.255772 5.4538C0.426167 5.63415 0.630713 5.72414 0.869261 5.72414C1.11363 5.72414 1.32101 5.63412 1.49141 5.4538C1.66201 5.27348 1.74718 5.05413 1.74718 4.79589V0.91947C1.74718 0.661099 1.66201 0.443206 1.49141 0.265917Z" transform="translate(10.2529 4.85895)" fill="#7A83A1"/>
</svg>
