<svg width="12" height="12" viewBox="0 0 12 12" fill="none" xmlns="http://www.w3.org/2000/svg">
<path fill-rule="evenodd" clip-rule="evenodd" d="M11.5633 2.52431C12.1465 1.9411 12.1434 1.00954 11.5669 0.43306C10.9864 -0.147434 10.0542 -0.141782 9.47569 0.436707L6 3.9124L2.52431 0.436707C1.9411 -0.146507 1.00954 -0.143415 0.43306 0.43306C-0.147434 1.01355 -0.141782 1.94582 0.436707 2.52431L3.9124 6L0.436707 9.47569C-0.146507 10.0589 -0.143415 10.9905 0.43306 11.5669C1.01355 12.1474 1.94582 12.1418 2.52431 11.5633L6 8.0876L9.47569 11.5633C10.0589 12.1465 10.9905 12.1434 11.5669 11.5669C12.1474 10.9864 12.1418 10.0542 11.5633 9.47569L8.0876 6L11.5633 2.52431Z" fill="#7A83A1"/>
</svg>
