<svg width="18" height="16" viewBox="0 0 18 16" fill="none" xmlns="http://www.w3.org/2000/svg">
<path d="M17.1818 5.7375H13.2627L9.67091 0.362045C9.34364 -0.120682 8.63182 -0.120682 8.31273 0.362045L4.72091 5.7375H0.818182C0.368182 5.7375 0 6.10568 0 6.55568C0 6.62932 0.00818179 6.70295 0.0327272 6.77659L2.11091 14.3611C2.29909 15.0484 2.92909 15.5557 3.68182 15.5557H14.3182C15.0709 15.5557 15.7009 15.0484 15.8973 14.3611L17.9755 6.77659L18 6.55568C18 6.10568 17.6318 5.7375 17.1818 5.7375ZM8.99182 2.29295L11.2909 5.7375H6.69273L8.99182 2.29295ZM9 12.283C8.1 12.283 7.36364 11.5466 7.36364 10.6466C7.36364 9.74659 8.1 9.01023 9 9.01023C9.9 9.01023 10.6364 9.74659 10.6364 10.6466C10.6364 11.5466 9.9 12.283 9 12.283Z" fill="#7A83A1"/>
</svg>
