<svg width="64" height="16" viewBox="0 0 64 16" fill="none" xmlns="http://www.w3.org/2000/svg">
<path d="M17.916 18V3.9082H14.3418V9.43555H8.72659V3.9082H5.1426V18H8.72659V12.3164H14.3418V18H17.916ZM36.2227 18V3.9082H31.9942L28.586 12.5215H28.4005L24.9825 3.9082H20.754V18H24.0645V9.10352H24.2403L27.3849 16.916H29.6017L32.7364 9.10352H32.9122V18H36.2227Z" transform="translate(-5 -3)" fill="#A1A1A1"/>
<path d="M48.631 15.041H42.6447V3.9082H39.0607V18H48.631V15.041ZM54.9651 18.2539C58.4514 18.2539 60.5022 16.1445 60.5022 12.5605C60.5022 9.02539 58.4026 6.87695 54.9651 6.87695C51.5471 6.87695 49.428 9.04492 49.428 12.5605C49.428 16.1348 51.4885 18.2539 54.9651 18.2539ZM54.9651 15.6172C53.6955 15.6172 52.9729 14.5039 52.9729 12.5605C52.9729 10.666 53.7151 9.51367 54.9651 9.51367C56.2151 9.51367 56.9573 10.666 56.9573 12.5605C56.9573 14.4941 56.2346 15.6172 54.9651 15.6172ZM63.0374 4.64062V7.27734H61.3675V9.8457H63.0374V15.0215C63.0374 17.1504 64.1605 18.0195 67.0218 18.0195C67.6761 18.0195 68.3108 17.9609 68.6722 17.8828V15.4219C68.4183 15.4512 68.2034 15.4707 67.803 15.4707C66.9046 15.4707 66.4847 15.0703 66.4847 14.25V9.8457H68.6722V7.27734H66.4847V4.64062H63.0374Z" transform="translate(-5 -3)" fill="#FF2D55"/>
</svg>
