<svg width="24" height="24" viewBox="0 0 24 24" fill="none" xmlns="http://www.w3.org/2000/svg">
<path d="M5.91184 8.13805L5.61097 9.09171L5.61097 9.09171L5.91184 8.13805ZM0.218996 6.34205L0.519862 5.38838L0.519862 5.38838L0.218996 6.34205ZM0.228095 5.68636L-0.156496 4.76327L-0.156496 4.76327L0.228095 5.68636ZM13.8115 0.0270277L13.4269 -0.89606L13.4269 -0.896059L13.8115 0.0270277ZM6.12057 8.36455L5.15007 8.60565L5.15007 8.60565L6.12057 8.36455ZM7.61078 14.3632L6.64027 14.6043L6.64027 14.6043L7.61078 14.3632ZM8.24006 14.3805L9.15866 14.7757L9.15866 14.7757L8.24006 14.3805ZM14.223 0.473511L15.1416 0.8687L15.1416 0.8687L14.223 0.473511ZM6.2127 7.18438L0.519862 5.38838L-0.0818706 7.29571L5.61097 9.09171L6.2127 7.18438ZM0.612686 6.60945L14.1961 0.950115L13.4269 -0.896059L-0.156496 4.76327L0.612686 6.60945ZM5.15007 8.60565L6.64027 14.6043L8.58128 14.1221L7.09107 8.12346L5.15007 8.60565ZM9.15866 14.7757L15.1416 0.8687L13.3044 0.0783215L7.32146 13.9853L9.15866 14.7757ZM5.61097 9.09171C5.36839 9.01518 5.20328 8.81984 5.15007 8.60565L7.09107 8.12346C6.98365 7.69104 6.66239 7.32625 6.2127 7.18438L5.61097 9.09171ZM0.519862 5.38838C0.868576 5.49839 1.00299 5.82004 0.99994 6.0398C0.996979 6.2532 0.873802 6.50066 0.612686 6.60945L-0.156496 4.76327C-0.717139 4.99686 -0.993114 5.52539 -0.999868 6.01205C-1.00671 6.50507 -0.727082 7.09216 -0.0818706 7.29571L0.519862 5.38838ZM14.1961 0.950115C13.9301 1.06093 13.6206 0.981996 13.4322 0.777587C13.2499 0.57977 13.2087 0.300582 13.3044 0.078322L15.1416 0.8687C15.3598 0.361471 15.252 -0.198942 14.903 -0.577749C14.5478 -0.963149 13.9712 -1.12284 13.4269 -0.89606L14.1961 0.950115ZM6.64027 14.6043C6.79614 15.2317 7.3348 15.5887 7.87757 15.6036C8.40621 15.6182 8.92621 15.316 9.15866 14.7757L7.32146 13.9853C7.42198 13.7517 7.66615 13.5971 7.93253 13.6044C8.21304 13.6121 8.50303 13.8071 8.58128 14.1221L6.64027 14.6043Z" transform="translate(3.9624 5.79871)" fill="#7A83A1" fill-opacity="0.6"/>
</svg>
