<svg width="24" height="24" viewBox="0 0 24 24" fill="none" xmlns="http://www.w3.org/2000/svg">
<path d="M0.951038 5.1828C0.686405 5.1828 0.461549 5.27889 0.276955 5.47129C0.0923614 5.66363 0 5.89436 0 6.16355V10.2983C0 10.5738 0.0923291 10.8078 0.276955 11.0001C0.461549 11.1925 0.686275 11.2884 0.950941 11.2884C1.21567 11.2884 1.43878 11.1924 1.62034 11.0001C1.80202 10.8078 1.8928 10.5738 1.8928 10.2983V6.16355C1.8928 5.89426 1.8004 5.66353 1.61581 5.47129C1.43118 5.27899 1.2095 5.1828 0.951038 5.1828Z" transform="translate(5 4)" fill="#7A83A1"/>
<path d="M2.26416 11.7695C2.26416 12.0643 2.36267 12.3143 2.55961 12.5195C2.75659 12.7244 2.99658 12.8269 3.27981 12.8269H3.96308L3.97239 15.0097C3.97239 15.2853 4.06472 15.5192 4.24935 15.7115C4.43394 15.9039 4.6556 16 4.91409 16C5.17888 16 5.40348 15.9039 5.58817 15.7115C5.77286 15.5192 5.86513 15.2853 5.86513 15.0097V12.8269H7.1392V15.0097C7.1392 15.2853 7.2315 15.5192 7.41609 15.7115C7.60091 15.9039 7.82557 16 8.09031 16C8.35481 16 8.57947 15.9039 8.76407 15.7115C8.94866 15.5192 9.04086 15.2853 9.04086 15.0097V12.8269H9.73344C10.0103 12.8269 10.2473 12.7246 10.4443 12.5195C10.6413 12.3143 10.7398 12.0643 10.7398 11.7695V5.36554H2.26416V11.7695Z" transform="translate(5 4)" fill="#7A83A1"/>
<path d="M8.5959 1.47117L9.25126 0.211489C9.29444 0.128168 9.27891 0.0640777 9.20521 0.0192516C9.12507 -0.0192429 9.06357 -1.24648e-05 9.02062 0.0769766L8.35572 1.34615C7.77096 1.07693 7.15253 0.942312 6.49995 0.942312C5.84754 0.942312 5.22888 1.07693 4.64409 1.34615L3.97932 0.0770103C3.93637 2.12118e-05 3.87473 -0.0192092 3.79472 0.0192853C3.72083 0.0641114 3.70553 0.128202 3.74861 0.211522L4.40416 1.47117C3.7393 1.82368 3.21009 2.31569 2.81604 2.94709C2.42211 3.57853 2.2251 4.26928 2.2251 5.01916H10.7658C10.7658 4.26928 10.5688 3.5785 10.1748 2.94709C9.78072 2.31569 9.25472 1.82364 8.5959 1.47117ZM4.80569 3.3028C4.73496 3.37656 4.65036 3.41341 4.55186 3.41341C4.45335 3.41341 4.3703 3.37659 4.30252 3.3028C4.2349 3.22915 4.20097 3.14098 4.20097 3.03843C4.20097 2.93584 4.2349 2.84767 4.30252 2.77392C4.37021 2.70016 4.45338 2.66338 4.55186 2.66338C4.65023 2.66338 4.73486 2.70013 4.80569 2.77392C4.87651 2.84767 4.91189 2.93584 4.91189 3.03843C4.91189 3.14101 4.87651 3.22905 4.80569 3.3028ZM8.69758 3.3028C8.62973 3.37656 8.54662 3.41341 8.44814 3.41341C8.34964 3.41341 8.2652 3.37659 8.19435 3.3028C8.12352 3.22915 8.08824 3.14098 8.08824 3.03843C8.08824 2.93584 8.12352 2.84767 8.19435 2.77392C8.26517 2.70016 8.34964 2.66338 8.44814 2.66338C8.54662 2.66338 8.62973 2.70013 8.69758 2.77392C8.76511 2.84767 8.79909 2.93584 8.79909 3.03843C8.79909 3.14101 8.7652 3.22905 8.69758 3.3028Z" transform="translate(5 4)" fill="#7A83A1"/>
<path d="M12.7229 5.46644C12.5383 5.27737 12.3136 5.1828 12.0489 5.1828C11.7904 5.1828 11.5689 5.27737 11.3843 5.46644C11.1996 5.65558 11.1072 5.88799 11.1072 6.16355V10.2983C11.1072 10.5738 11.1996 10.8078 11.3843 11.0001C11.5689 11.1925 11.7904 11.2884 12.0489 11.2884C12.3136 11.2884 12.5383 11.1924 12.7229 11.0001C12.9077 10.8078 12.9999 10.5738 12.9999 10.2983V6.16355C12.9999 5.88796 12.9077 5.65555 12.7229 5.46644Z" transform="translate(5 4)" fill="#7A83A1"/>
</svg>
