<svg width="24" height="24" viewBox="0 0 24 24" fill="none" xmlns="http://www.w3.org/2000/svg">
<path d="M10.8576 8.50022C10.8375 6.47423 12.5065 5.50258 12.5811 5.45431C11.6433 4.0792 10.1824 3.89082 9.66183 3.86904C8.41856 3.7429 7.23592 4.60249 6.60495 4.60249C5.97557 4.60249 5.00191 3.88769 3.97081 3.90647C2.61569 3.92665 1.36619 4.69601 0.668429 5.91212C-0.739507 8.3602 0.30787 11.9869 1.68013 13.9723C2.35067 14.9442 3.15025 16.0357 4.20006 15.9967C5.21101 15.9563 5.59331 15.3412 6.81555 15.3412C8.03777 15.3412 8.38136 15.9967 9.45119 15.9766C10.5391 15.9563 11.2283 14.9861 11.8942 14.0113C12.6642 12.8838 12.9813 11.7923 13 11.7363C12.9758 11.7252 10.8786 10.9201 10.8576 8.50022ZM8.84738 2.55466C9.40457 1.87729 9.78066 0.937521 9.67807 0C8.87548 0.0327453 7.90262 0.535704 7.32678 1.21154C6.8101 1.81108 6.3578 2.76798 6.479 3.68675C7.37499 3.7568 8.28959 3.2305 8.84738 2.55466Z" transform="translate(5 4)" fill="#7A83A1"/>
</svg>
