<svg width="20" height="20" viewBox="0 0 20 20" fill="none" xmlns="http://www.w3.org/2000/svg">
<path d="M9.1916 2.48799C9.44605 1.70488 10.5539 1.70488 10.8084 2.48799L12.0543 6.32249C12.1681 6.67271 12.4945 6.90983 12.8627 6.90983L16.8945 6.90983C17.7179 6.90983 18.0603 7.9635 17.3942 8.44749L14.1323 10.8173C13.8344 11.0338 13.7098 11.4175 13.8235 11.7677L15.0695 15.6022C15.3239 16.3853 14.4276 17.0365 13.7614 16.5525L10.4996 14.1827C10.2017 13.9662 9.7983 13.9662 9.50038 14.1827L6.23856 16.5525C5.5724 17.0365 4.6761 16.3853 4.93055 15.6022L6.17645 11.7677C6.29024 11.4175 6.16558 11.0338 5.86767 10.8173L2.60585 8.44749C1.93969 7.9635 2.28205 6.90983 3.10547 6.90983L7.1373 6.90983C7.50554 6.90983 7.8319 6.67271 7.9457 6.32249L9.1916 2.48799Z" fill="#C4C4C4"/>
</svg>
