<svg width="20" height="20" viewBox="0 0 20 20" fill="none" xmlns="http://www.w3.org/2000/svg">
<path d="M10.3329 2.6425L11.5788 6.477C11.7595 7.03323 12.2778 7.40983 12.8627 7.40983H16.8945C17.2336 7.40983 17.3746 7.8437 17.1003 8.04299L13.8384 10.4128C13.3653 10.7566 13.1673 11.366 13.348 11.9222L14.5939 15.7567C14.6987 16.0791 14.3296 16.3473 14.0553 16.148L10.7935 13.7781C10.3204 13.4344 9.67965 13.4344 9.20649 13.7781L5.94467 16.148C5.67037 16.3473 5.3013 16.0791 5.40607 15.7567L6.65198 11.9222C6.83271 11.366 6.63472 10.7566 6.16156 10.4128L2.89974 8.04299C2.62544 7.8437 2.76641 7.40983 3.10547 7.40983H7.1373C7.72215 7.40983 8.24049 7.03323 8.42123 6.477L9.66713 2.6425C9.7719 2.32004 10.2281 2.32004 10.3329 2.6425Z" stroke="#C4C4C4"/>
</svg>
